<svg xmlns="http://www.w3.org/2000/svg" width="64" height="64" viewBox="0 0 64 64" role="img" aria-label="Селёдка с душком">
  <rect x="3" y="3" width="58" height="58" rx="12" fill="#203a3b" stroke="#d8ea70" stroke-width="3"/>
  <path d="M11 28v17c0 12 42 12 42 0V28Z" fill="#d5e4ea" stroke="#708e92" stroke-width="2.5"/>
  <path d="M12 35c9 7 31 7 40 0v9c-9 8-31 8-40 0Z" fill="#349ac7"/>
  <ellipse cx="32" cy="28" rx="21" ry="9" fill="#fff7e7" stroke="#708e92" stroke-width="2.5"/>
  <ellipse cx="32" cy="28" rx="17" ry="6" fill="#d5e4ea" stroke="#a6bcc2" stroke-width="1.5"/>
  <path d="M40 28c-5-7-16-7-21 0 5 7 16 7 21 0l7-4v8Z" fill="#349ac7" stroke="#257299" stroke-width="1.5" stroke-linejoin="round"/>
  <circle cx="24" cy="27" r="1.5" fill="#28313a"/>
  <ellipse cx="20" cy="21" rx="4.5" ry="2.5" fill="none" stroke="#28313a" stroke-width="2.5"/>
  <path d="M24 15c-4-3 4-4 0-7m15 8c-4-3 4-4 0-7" fill="none" stroke="#b3d873" stroke-width="2" stroke-linecap="round"/>
</svg>
